<?xml version="1.0" encoding="UTF-8"?>
<svg width="37px" height="37px" viewBox="0 0 37 37" version="1.1" xmlns="http://www.w3.org/2000/svg" xmlns:xlink="http://www.w3.org/1999/xlink">
    <!-- Generator: Sketch 59.1 (86144) - https://sketch.com -->
    <title>call</title>
    <desc>Created with Sketch.</desc>
    <g id="Page-1" stroke="none" stroke-width="1" fill="none" fill-rule="evenodd">
        <g id="homepage_revised" transform="translate(-224.000000, -2906.000000)" fill="#000000">
            <g id="call" transform="translate(224.000000, 2906.000000)">
                <path d="M36.0291038,28.5442446 L28.5401691,23.5496294 C27.5898,22.9208946 26.3158733,23.1277752 25.6132663,24.0250283 L23.4318177,26.8300193 C23.1514686,27.1997017 22.6418545,27.3069356 22.2362876,27.0816288 L21.8213275,26.8528534 C20.4457381,26.1030108 18.7341633,25.1694831 15.2856522,21.7194989 C11.837141,18.2695147 10.9018009,16.5565178 10.1520115,15.1833599 L9.92448074,14.7683704 C9.6960829,14.3628469 9.80128608,13.8510289 10.1710868,13.5684199 L12.9740001,11.3874668 C13.8708284,10.6847377 14.0779832,9.41108194 13.4500156,8.46035636 L8.45575474,0.970890391 C7.81218007,0.00275013396 6.52098444,-0.287879819 5.52466118,0.311083801 L2.39306018,2.19237441 C1.40909252,2.77088843 0.687193498,3.70781235 0.378737195,4.80681557 C-0.748945526,8.91595602 0.0993996283,16.0077026 10.5454396,26.4557122 C18.8550458,34.7652575 25.0411518,37 29.2930655,37 C30.271614,37.0040909 31.2463331,36.8767687 32.1909941,36.6213294 C33.2901361,36.3132125 34.227138,35.59119 34.8052497,34.6068635 L36.6882855,31.4769191 C37.2880737,30.4803083 36.9976089,29.1882262 36.0291038,28.5442446 Z M35.625849,30.84421 L33.7471485,33.9760332 C33.3320439,34.6864941 32.6581222,35.208862 31.8665694,35.4337353 C28.0734023,36.4752195 21.4464689,35.612579 11.4178457,25.5832442 C1.38922242,15.5539095 0.526715295,8.92708407 1.56812563,5.13306973 C1.79327199,4.34052141 2.31625319,3.66568473 3.02753074,3.24990036 L6.15913174,1.37106659 C6.59143299,1.11093038 7.15184225,1.23702418 7.43110756,1.65714416 L10.1440635,5.73051589 L12.4211054,9.14595979 C12.6937955,9.55834794 12.6041994,10.1110651 12.2151788,10.4162193 L9.41161524,12.5971724 C8.558429,13.2496085 8.31478537,14.430121 8.84007873,15.367045 L9.06269617,15.7715568 C9.85070846,17.2169024 10.8304131,19.0149495 14.4071767,22.5913888 C17.9839403,26.1677558 19.7812818,27.1476022 21.2258746,27.9355981 L21.6309358,28.1588095 C22.567721,28.6840678 23.748222,28.4404792 24.4006118,27.5872324 L26.5814102,24.7834699 C26.886615,24.3946385 27.4390762,24.3051083 27.8515796,24.5775287 L35.339864,29.5721439 C35.7602432,29.8512123 35.886328,30.4119503 35.625849,30.84421 Z" id="Shape" fill-rule="nonzero"></path>
                <path d="M20.5999789,6.19995781 C26.2306962,6.20621565 30.793714,10.7693038 30.8000422,16.4000211 C30.8000422,16.7314052 31.068637,17 31.4000211,17 C31.7314052,17 32,16.7314052 32,16.4000211 C31.993039,10.1068168 26.8931832,5.00689065 20.5999789,5 C20.2685948,5 20,5.2685948 20,5.59997891 C20,5.93136301 20.2685948,6.19995781 20.5999789,6.19995781 Z" id="Path"></path>
                <path d="M21.5714094,10.1428189 C25.0412502,10.1469037 27.8530963,12.9587498 27.8571811,16.4285906 C27.8571811,16.744195 28.1130531,17 28.4285906,17 C28.744195,17 29,16.744195 29,16.4285906 C28.9952455,12.3278087 25.6721243,9.00468753 21.5714094,9 C21.255805,9 21,9.255805 21,9.57140944 C21,9.88701388 21.255805,10.1428189 21.5714094,10.1428189 Z" id="Path"></path>
                <path d="M21.6249817,13.2499634 C23.3499985,13.2520142 24.7479126,14.6499282 24.7500366,16.3750183 C24.7500366,16.7202121 25.0298978,17 25.3750183,17 C25.7201389,17 26,16.7202121 26,16.3750183 C25.9972168,13.9599068 24.0400932,12.00271 21.6249817,12 C21.2797879,12 21,12.2797879 21,12.6249817 C21,12.9701755 21.2797879,13.2499634 21.6249817,13.2499634 Z" id="Path"></path>
            </g>
        </g>
    </g>
</svg>