<?xml version="1.0" standalone="no"?>
<!DOCTYPE svg PUBLIC "-//W3C//DTD SVG 20010904//EN"
 "http://www.w3.org/TR/2001/REC-SVG-20010904/DTD/svg10.dtd">
<svg version="1.0" xmlns="http://www.w3.org/2000/svg"
 width="194.000000pt" height="138.000000pt" viewBox="0 0 194.000000 138.000000"
 preserveAspectRatio="xMidYMid meet">
<metadata>
Created by potrace 1.15, written by Peter Selinger 2001-2017
</metadata>
<g transform="translate(0.000000,138.000000) scale(0.100000,-0.100000)"
fill="#000000" stroke="none">
<path d="M450 1030 c-17 -17 -20 -33 -20 -110 0 -83 1 -90 20 -90 11 0 20 -4
20 -10 0 -5 -5 -9 -12 -7 -7 1 -10 -16 -9 -55 2 -36 -2 -58 -8 -58 -7 0 -11
-24 -11 -58 0 -93 -3 -92 252 -92 251 0 248 -1 248 93 0 44 -3 57 -15 57 -11
0 -15 12 -15 48 0 33 -3 43 -10 32 -5 -8 -7 -24 -4 -35 2 -11 1 -47 -4 -80
l-8 -60 -8 97 c-5 54 -5 109 -2 123 5 18 2 25 -9 25 -8 0 -15 5 -15 11 0 5 -4
7 -10 4 -5 -3 -10 -1 -10 4 0 6 -7 11 -15 11 -8 0 -15 -6 -15 -14 0 -15 -37
-29 -42 -16 -2 5 -15 12 -30 15 -22 6 -28 4 -28 -9 0 -9 -7 -16 -15 -16 -12 0
-15 -15 -17 -72 l-1 -73 -6 55 c-5 45 -9 55 -24 53 -11 0 -16 4 -13 12 3 8 -5
16 -19 19 -13 3 -30 9 -38 12 -9 3 -17 -1 -19 -9 -2 -12 -8 -12 -38 -1 -31 11
-32 13 -10 14 14 0 33 7 42 14 17 12 17 14 -2 31 -11 10 -20 21 -20 24 1 19
160 71 160 53 0 -8 -20 -16 -107 -42 -31 -10 -39 -16 -30 -25 8 -9 17 -8 39 3
33 16 60 10 52 -13 -5 -12 7 -10 57 9 35 14 63 29 62 34 -1 5 16 14 37 21 22
6 39 17 37 23 -1 7 15 12 43 14 61 2 60 2 60 19 0 29 -39 35 -244 35 -193 0
-207 -1 -226 -20z"/>
</g>
</svg>
