<?xml version="1.0" encoding="UTF-8"?>
<svg width="42px" height="37px" viewBox="0 0 42 37" version="1.1" xmlns="http://www.w3.org/2000/svg" xmlns:xlink="http://www.w3.org/1999/xlink">
    <!-- Generator: Sketch 59.1 (86144) - https://sketch.com -->
    <title>chat</title>
    <desc>Created with Sketch.</desc>
    <g id="Page-1" stroke="none" stroke-width="1" fill="none" fill-rule="evenodd">
        <g id="homepage_revised" transform="translate(-622.000000, -2906.000000)" fill="#000000">
            <g id="chat" transform="translate(622.000000, 2906.000000)">
                <path d="M6.73333333,15 L16.2666667,15 C16.6722,15 17,14.776 17,14.5 C17,14.224 16.6722,14 16.2666667,14 L6.73333333,14 C6.3278,14 6,14.224 6,14.5 C6,14.776 6.3278,15 6.73333333,15 Z" id="Path"></path>
                <path d="M25.2857143,18 L6.71428571,18 C6.31928571,18 6,18.224 6,18.5 C6,18.776 6.31928571,19 6.71428571,19 L25.2857143,19 C25.6807143,19 26,18.776 26,18.5 C26,18.224 25.6807143,18 25.2857143,18 Z" id="Path"></path>
                <path d="M25.2857143,22 L6.71428571,22 C6.31928571,22 6,22.224 6,22.5 C6,22.776 6.31928571,23 6.71428571,23 L25.2857143,23 C25.6807143,23 26,22.776 26,22.5 C26,22.224 25.6807143,22 25.2857143,22 Z" id="Path"></path>
                <path d="M37.8504,0.0470301974 L13.951,0 C11.662,0 9.8,1.7871475 9.8,3.98412958 L9.8,7.42674003 L4.151,7.43816165 C1.862,7.43816165 0,9.22530915 0,11.4222912 L0,25.6260827 C0,27.8230648 1.862,29.6095404 4.151,29.6095404 L8.4,29.6095404 L8.4,36.32814 C8.4,36.6056182 8.5778,36.8548782 8.848,36.9549854 C8.9299,36.9852191 9.0153,37 9.1,37 C9.2932,37 9.4829,36.9227361 9.618,36.7803018 L16.4108,29.6081967 L28.049,29.5625102 C30.338,29.5625102 32.2,27.7753627 32.2,25.5790525 L32.2,25.5031323 L35.882,29.3905141 C36.0171,29.5329484 36.2068,29.6102123 36.4,29.6102123 C36.4847,29.6102123 36.5701,29.5954314 36.652,29.5651977 C36.9222,29.4650905 37.1,29.2158305 37.1,28.9383523 L37.1,22.2197527 L37.849,22.2197527 C40.138,22.2197527 42,20.4326052 42,18.236295 L42,4.03115978 C42,1.83484956 40.1387,0.0477020573 37.8504,0.0470301974 Z M30.8,25.5783806 C30.8,27.0343012 29.5659,28.2181184 28.0462,28.2181184 L16.0972,28.2651486 C15.9012,28.2658205 15.7136,28.3457718 15.582,28.4848468 L9.8,34.5900383 L9.8,28.9370086 C9.8,28.5661419 9.4871,28.2651486 9.1,28.2651486 L4.151,28.2651486 C2.6341,28.2651486 1.4,27.0806595 1.4,25.6254108 L1.4,11.4216194 C1.4,9.96569883 2.6341,8.78120971 4.1524,8.78120971 L10.5,8.76844437 C10.5,8.76844437 10.5,8.76844437 10.5,8.76844437 C10.5007,8.76844437 10.5007,8.76844437 10.5014,8.76844437 L28.049,8.73350765 C29.5659,8.73350765 30.8,9.91799677 30.8,11.3739173 L30.8,23.7636869 L30.8,25.5783806 Z M40.6,18.2349512 C40.6,19.6908718 39.3659,20.874689 37.849,20.874689 L36.4,20.874689 C36.0129,20.874689 35.7,21.1756823 35.7,21.546549 L35.7,27.1995787 L32.2,23.5043489 L32.2,11.3745892 C32.2,9.17760709 30.338,7.39045959 28.0476,7.39045959 L11.2,7.42338073 L11.2,3.98345772 C11.2,2.52753718 12.4341,1.34304807 13.9496,1.34304807 L37.8483,1.39007826 C37.849,1.39007826 37.849,1.39007826 37.8497,1.39007826 C39.3666,1.39007826 40.6007,2.57456738 40.6007,4.03048792 L40.6007,18.2349512 L40.6,18.2349512 Z" id="Shape" fill-rule="nonzero"></path>
            </g>
        </g>
    </g>
</svg>