<?xml version="1.0" encoding="UTF-8"?>
<svg width="40px" height="30px" viewBox="0 0 40 30" version="1.1" xmlns="http://www.w3.org/2000/svg" xmlns:xlink="http://www.w3.org/1999/xlink">
    <!-- Generator: Sketch 59.1 (86144) - https://sketch.com -->
    <title>email</title>
    <desc>Created with Sketch.</desc>
    <g id="Page-1" stroke="none" stroke-width="1" fill="none" fill-rule="evenodd">
        <g id="homepage_revised" transform="translate(-1027.000000, -2910.000000)" fill="#000000">
            <g id="email" transform="translate(1047.000000, 2925.000000) scale(-1, 1) translate(-1047.000000, -2925.000000) translate(1027.000000, 2910.000000)">
                <path d="M38,0 L2,0 C0.89546875,0 0,0.875926355 0,1.9565234 L0,28.0434766 C0,29.1239972 0.895390625,30 2,30 L38,30 C39.1045313,30 40,29.1240736 40,28.0434766 L40,1.9565234 C40,0.876002782 39.1046094,0 38,0 Z M38.6666406,28.043553 C38.6666406,28.403752 38.3682031,28.695702 38,28.695702 L2,28.695702 C1.63179688,28.695702 1.33335938,28.403752 1.33335938,28.043553 L1.33335938,1.9565234 C1.33335938,1.59632439 1.63179688,1.30437441 2,1.30437441 L38,1.30437441 C38.3682031,1.30437441 38.6666406,1.59632439 38.6666406,1.9565234 L38.6666406,28.043553 Z" id="Shape" fill-rule="nonzero"></path>
                <path d="M37.3854455,3.00244748 C37.2075802,2.98781231 37.0308191,3.04033547 36.894127,3.14850198 L21.3662051,15.4342415 C20.8654215,15.8307282 20.1344777,15.8307282 19.633694,15.4342415 L4.10592988,3.14842769 C3.92175444,3.00281893 3.66903577,2.96077068 3.44305606,3.03818106 C3.21707634,3.11559143 3.05206777,3.30072257 3.0102635,3.523816 C2.96845922,3.74690943 3.05616932,3.97401453 3.24034476,4.11962329 L18.7681877,16.4047685 C19.7689663,17.1984105 21.2310117,17.1984105 22.2318691,16.4047685 L37.7596332,4.11969758 C37.8964042,4.01160536 37.9819058,3.85678461 37.9974443,3.68926025 C38.0129829,3.52173588 37.9572176,3.35525157 37.8423741,3.22650668 C37.7276884,3.0976132 37.5633109,3.01708264 37.3854455,3.00244748 Z" id="Path"></path>
                <path d="M12.4632679,16.0155199 C12.2203492,15.9645117 11.9672185,16.0412511 11.8015739,16.2160715 L2.19523079,25.9030908 C2.02138435,26.070646 1.95753879,26.3137296 2.02846043,26.538196 C2.09938206,26.7627381 2.29389388,26.9334718 2.53673212,26.9844801 C2.77965077,27.0354883 3.0327815,26.9587489 3.19842612,26.7839285 L12.8047692,17.0969092 C12.9786157,16.929354 13.0424612,16.6862704 12.9715396,16.461804 C12.9006179,16.2373376 12.7061865,16.0665282 12.4632679,16.0155199 Z" id="Path"></path>
                <path d="M27.2007475,16.216493 C27.0348626,16.0413316 26.781161,15.9644425 26.5377718,16.0155502 C26.2943826,16.0666579 26.0995746,16.2378005 26.0285156,16.4627048 C25.9574565,16.6876849 26.0214258,16.9311669 26.195609,17.0990489 L35.8205597,26.8049652 C36.0815928,27.0565607 36.5082691,27.0659633 36.7814676,26.8260452 C37.0546661,26.5861271 37.0743242,26.1848481 36.8256982,25.9223334 L27.2007475,16.216493 Z" id="Path"></path>
            </g>
        </g>
    </g>
</svg>